<svg xmlns="http://www.w3.org/2000/svg" xmlns:xlink="http://www.w3.org/1999/xlink" width="500" zoomAndPan="magnify" viewBox="0 0 375 374.999991" height="500" preserveAspectRatio="xMidYMid meet" version="1.0"><defs><g/></defs><g fill="#55ccc9" fill-opacity="1"><g transform="translate(32.060378, 198.683306)"><g><path d="M 18.9375 1.144531 C 25.148438 1.144531 30.269531 -1.789062 32.554688 -6.710938 L 32.605469 -6.710938 L 33.449219 0 L 39.660156 0 L 39.660156 -20.078125 L 16.152344 -20.078125 L 16.152344 -14.8125 L 31.359375 -14.8125 C 31.164062 -9.59375 26.839844 -5.816406 21.222656 -5.816406 C 14.613281 -5.816406 9.988281 -10.6875 9.988281 -17.695312 C 9.988281 -24.601562 14.113281 -29.371094 20.03125 -29.371094 C 23.855469 -29.371094 27.1875 -26.9375 28.328125 -23.410156 L 36.132812 -25.050781 C 34.34375 -31.90625 27.933594 -36.628906 20.128906 -36.628906 C 9.09375 -36.628906 1.492188 -28.925781 1.492188 -17.695312 C 1.492188 -6.558594 8.648438 1.144531 18.9375 1.144531 Z M 18.9375 1.144531 "/></g></g></g><g fill="#55ccc9" fill-opacity="1"><g transform="translate(79.57292, 198.683306)"><g><path d="M 0.25 0 L 9.144531 0 L 11.429688 -6.957031 L 25.050781 -6.957031 L 27.335938 0 L 36.230469 0 L 23.457031 -35.386719 L 13.070312 -35.386719 Z M 12.972656 -12.972656 L 18.191406 -28.675781 L 18.289062 -28.675781 L 23.507812 -12.972656 Z M 12.972656 -12.972656 "/></g></g></g><g fill="#55ccc9" fill-opacity="1"><g transform="translate(121.916799, 198.683306)"><g><path d="M 2.734375 0 L 10.488281 0 L 10.488281 -24.800781 L 10.585938 -24.800781 L 20.726562 0 L 27.632812 0 L 37.722656 -24.851562 L 37.820312 -24.851562 L 37.820312 0 L 45.625 0 L 45.625 -35.386719 L 34.640625 -35.386719 L 24.253906 -9.492188 L 24.15625 -9.492188 L 13.816406 -35.386719 L 2.734375 -35.386719 Z M 2.734375 0 "/></g></g></g><g fill="#55ccc9" fill-opacity="1"><g transform="translate(176.138672, 198.683306)"><g><path d="M 20.675781 1.242188 C 30.8125 1.242188 37.921875 -4.722656 39.015625 -14.113281 L 31.0625 -15.207031 C 30.21875 -9.640625 26.191406 -6.0625 20.773438 -6.0625 C 14.214844 -6.0625 10.039062 -10.585938 9.988281 -17.695312 C 9.988281 -24.851562 13.765625 -29.371094 19.730469 -29.371094 C 24.351562 -29.371094 27.433594 -26.390625 28.328125 -21.621094 L 36.082031 -23.558594 C 34.839844 -31.558594 28.429688 -36.628906 19.730469 -36.628906 C 8.546875 -36.628906 1.492188 -29.273438 1.492188 -17.695312 C 1.492188 -6.113281 8.945312 1.242188 20.675781 1.242188 Z M 20.675781 1.242188 "/></g></g></g><g fill="#55ccc9" fill-opacity="1"><g transform="translate(221.862073, 198.683306)"><g><path d="M 21.074219 1.242188 C 32.953125 1.242188 40.703125 -6.261719 40.703125 -17.695312 C 40.703125 -29.125 32.953125 -36.628906 21.074219 -36.628906 C 9.246094 -36.628906 1.492188 -29.125 1.492188 -17.695312 C 1.492188 -6.261719 9.246094 1.242188 21.074219 1.242188 Z M 21.074219 -6.0625 C 14.363281 -6.0625 9.988281 -10.6875 9.988281 -17.695312 C 9.988281 -24.75 14.363281 -29.371094 21.074219 -29.371094 C 27.832031 -29.371094 32.207031 -24.75 32.207031 -17.695312 C 32.207031 -10.6875 27.832031 -6.0625 21.074219 -6.0625 Z M 21.074219 -6.0625 "/></g></g></g><g fill="#55ccc9" fill-opacity="1"><g transform="translate(269.921303, 198.683306)"><g><path d="M 2.734375 0 L 17.296875 0 C 29.570312 0 36.429688 -6.3125 36.429688 -17.695312 C 36.429688 -29.074219 29.570312 -35.386719 17.296875 -35.386719 L 2.734375 -35.386719 Z M 10.984375 -6.808594 L 10.984375 -28.628906 L 17.296875 -28.628906 C 24.105469 -28.628906 27.933594 -24.75 27.933594 -17.695312 C 27.933594 -10.6875 24.105469 -6.808594 17.296875 -6.808594 Z M 10.984375 -6.808594 "/></g></g></g><g fill="#55ccc9" fill-opacity="1"><g transform="translate(313.706444, 198.683306)"><g><path d="M 2.734375 0 L 28.128906 0 L 28.128906 -6.808594 L 10.933594 -6.808594 L 10.933594 -15.109375 L 25.644531 -15.109375 L 25.644531 -21.121094 L 10.933594 -21.121094 L 10.933594 -28.628906 L 27.632812 -28.628906 L 27.632812 -35.386719 L 2.734375 -35.386719 Z M 2.734375 0 "/></g></g></g></svg>