<svg xmlns="http://www.w3.org/2000/svg" width="32" height="32" id="badge"><g transform="translate(517 -1144.362)"><path fill="#25b39e" d="m-499.327 1167.158 4.74 8.204.969-3.633 3.618.974-2.833-4.928-2.177-3.707m-6.744 3.09-4.74 8.204-.969-3.633-3.618.974 2.833-4.928 2.177-3.707" color="#000" overflow="visible" style="isolation:auto;mix-blend-mode:normal"></path><path fill="#f8b84e" d="M-503.084 1146.364c-.295.052-1.334 1.574-1.616 1.679-.282.104-2.04-.384-2.3-.231-.26.153-.722 1.943-.952 2.14-.23.196-2.046.349-2.239.583-.193.234-.028 2.079-.178 2.343-.15.265-1.806 1.043-1.908 1.33-.103.288.674 1.96.621 2.262-.052.3-1.344 1.603-1.344 1.909 0 .305 1.292 1.608 1.344 1.909.053.3-.724 1.974-.621 2.261.102.287 1.757 1.066 1.908 1.33.15.265-.015 2.11.178 2.344.193.234 2.009.386 2.239.583.23.197.691 1.987.952 2.14.26.153 2.018-.331 2.3-.227.282.105 1.32 1.622 1.616 1.675.296.052 1.783-1.013 2.083-1.013.3 0 1.787 1.066 2.083 1.013.296-.052 1.334-1.57 1.617-1.675.282-.105 2.04.38 2.3.227.26-.153.722-1.944.952-2.14.23-.197 2.045-.349 2.238-.583.193-.234.029-2.079.179-2.343.15-.265 1.801-1.044 1.904-1.33.103-.288-.674-1.961-.622-2.262.052-.3 1.348-1.604 1.348-1.91 0-.305-1.296-1.608-1.348-1.908-.052-.301.725-1.974.622-2.262-.103-.287-1.754-1.065-1.904-1.33-.15-.264.014-2.11-.179-2.343-.193-.234-2.008-.387-2.238-.583-.23-.197-.692-1.987-.952-2.14-.26-.153-2.018.335-2.3.23-.283-.104-1.321-1.625-1.617-1.678-.296-.052-1.782 1.013-2.083 1.013-.3 0-1.787-1.066-2.083-1.013zm2.021 4.002c4.383 0 7.958 3.6 7.958 8.013s-3.575 8.012-7.958 8.012-7.958-3.599-7.958-8.012 3.575-8.013 7.958-8.013z" color="#000" overflow="visible" style="isolation:auto;mix-blend-mode:normal"></path><circle cx="-501.001" cy="1158.379" r="8.5" fill="#25b39e" stroke="#fcd062" stroke-linecap="round" stroke-linejoin="round" color="#000" overflow="visible" style="isolation:auto;mix-blend-mode:normal"></circle><circle style="isolation:auto;mix-blend-mode:normal" cx="-500.984" cy="1158.362" r="7" fill="#60c5b8" color="#000" overflow="visible"></circle><circle cx="-500.984" cy="1158.362" r="1" fill="none" stroke="#2b4255" stroke-linecap="round" stroke-linejoin="round" color="#000" overflow="visible" style="isolation:auto;mix-blend-mode:normal"></circle><path fill="none" stroke="#2b4255" d="M-500.984 1154.362v3m.3.6 4-3m-4.3 10.4v-1m0-13v1m-7 6h1m13 0h-1"></path></g></svg>