<?xml version="1.0" standalone="no"?>
<!DOCTYPE svg PUBLIC "-//W3C//DTD SVG 20010904//EN"
 "http://www.w3.org/TR/2001/REC-SVG-20010904/DTD/svg10.dtd">
<svg version="1.0" xmlns="http://www.w3.org/2000/svg"
 width="129.000000pt" height="128.000000pt" viewBox="0 0 129.000000 128.000000"
 preserveAspectRatio="xMidYMid meet">

<g transform="translate(0.000000,128.000000) scale(0.100000,-0.100000)"
fill="#000000" stroke="none">
<path d="M530 1233 c-210 -35 -404 -199 -488 -411 -23 -59 -26 -81 -26 -187 0
-105 3 -130 28 -200 105 -303 415 -483 726 -421 130 26 219 75 321 176 135
134 189 261 189 447 0 85 -4 114 -26 175 -74 205 -250 364 -456 413 -58 13
-208 18 -268 8z m300 -270 c100 -39 226 -130 217 -156 -2 -7 -32 -15 -66 -18
-71 -7 -107 -29 -133 -80 -50 -98 21 -209 134 -209 43 0 54 5 93 41 56 52 75
43 75 -35 0 -132 -119 -250 -313 -311 -63 -20 -99 -25 -185 -25 -174 0 -308
47 -411 144 -58 56 -85 101 -100 168 -20 90 15 115 77 56 30 -30 39 -33 95
-33 71 0 106 19 132 72 46 95 -23 213 -127 213 -84 0 -88 23 -15 81 60 48 155
95 218 109 68 14 256 4 309 -17z m-432 -273 c43 -65 1 -145 -77 -145 -68 0
-119 72 -90 127 26 50 40 59 93 56 45 -3 53 -7 74 -38z m628 32 c22 -15 44
-58 44 -85 0 -20 -11 -40 -35 -64 -32 -32 -40 -35 -73 -30 -74 12 -108 101
-61 161 17 21 29 26 67 26 26 0 52 -4 58 -8z"/>
<path d="M577 620 c-16 -5 -35 -14 -43 -21 -32 -27 -3 -123 46 -149 17 -9 19
-14 9 -26 -17 -21 -75 -18 -97 6 -17 18 -23 19 -46 9 -39 -18 -35 -37 18 -77
38 -29 108 -30 154 -2 l33 20 26 -20 c51 -40 162 -17 193 39 9 17 6 22 -17 35
-26 13 -31 12 -52 -5 -26 -21 -62 -24 -91 -9 -18 9 -16 13 20 48 51 48 59 104
19 134 -30 22 -127 33 -172 18z"/>
<path d="M275 660 c-29 -32 -10 -74 33 -78 18 -2 40 2 48 9 17 14 18 61 2 77
-19 19 -63 14 -83 -8z"/>
<path d="M928 655 c-18 -41 3 -75 47 -75 28 0 38 5 47 25 18 41 -3 75 -47 75
-28 0 -38 -5 -47 -25z"/>
</g>
</svg>
